# xmcd
#
# Track frame offsets:
#	150
#	14956
#	30182
#	50486
#	68603
#	85697
#	101113
#	114946
#	132879
#	156452
#	172386
#	186152
#	203939
#
# Disc length: 2951 seconds
#
# Revision: 0
# Processed by: cddbd v1.4PL0 Copyright (c) Steve Scherf et al.
# Submitted via: dBpowerAMP V4.0
#
DISCID=b40b850d
DTITLE=Michael Person - abc
DYEAR=2003
DGENRE=Country
TTITLE0=a
TTITLE1=b
TTITLE2=c
TTITLE3=d
TTITLE4=e
TTITLE5=f
TTITLE6=g
TTITLE7=Drawbridge Rendezvous
TTITLE8=h
TTITLE9=i
TTITLE10=j
TTITLE11=k
TTITLE12=l
EXTD=abc
EXTT0=
EXTT1=
EXTT2=
EXTT3=
EXTT4=
EXTT5=
EXTT6=
EXTT7=
EXTT8=
EXTT9=
EXTT10=
EXTT11=
EXTT12=
PLAYORDER=
